<svg width="1519" height="241" viewBox="0 0 1519 241" fill="none" xmlns="http://www.w3.org/2000/svg">
<g id="Group 115" opacity="0.7">
<g id="Group 104">
<g id="Group 100">
<path id="Vector" d="M92.1294 107.256L91.4268 107.662L92.165 108.751L92.3372 108.626L92.4442 107.762L92.1294 107.256Z" fill="black"/>
<g id="Group" opacity="0.05">
<path id="Vector_2" opacity="0.05" d="M93.6028 102.185C93.4613 102.399 93.3292 102.631 93.2886 102.793L93.4 102.716C93.3861 102.595 93.478 102.395 93.6028 102.185Z" fill="black"/>
<path id="Vector_3" opacity="0.05" d="M94.2368 105.096L94.3142 103.468C92.5869 104.564 90.0595 105.564 90.0595 105.564L89.9375 105.757C89.9375 105.757 92.4677 104.757 94.1922 103.661L94.1198 105.195L94.2368 105.096Z" fill="black"/>
</g>
<path id="Vector_4" d="M119.431 125.348C116.893 135.526 106.583 141.72 96.4023 139.182C86.2214 136.644 80.0299 126.334 82.5696 116.156C85.1092 105.977 95.4167 99.7819 105.594 102.32C115.772 104.857 121.969 115.168 119.431 125.348Z" fill="#F7931A"/>
<path id="Vector_5" d="M109.378 118.044C109.757 115.516 107.831 114.157 105.199 113.253L106.053 109.828L103.968 109.309L103.137 112.64C102.588 112.504 102.026 112.375 101.465 112.247L102.301 108.89L100.22 108.372L99.3655 111.795C98.912 111.692 98.4662 111.59 98.0344 111.482V111.471L95.161 110.752L94.6038 112.98C94.6038 112.98 96.1505 113.334 96.1182 113.357C96.9624 113.567 97.115 114.126 97.09 114.569L96.1171 118.469C96.1908 118.487 96.2632 118.511 96.3339 118.539C96.2642 118.521 96.1901 118.502 96.111 118.483L94.7475 123.948C94.6445 124.204 94.3826 124.589 93.792 124.443C93.8126 124.474 92.2764 124.065 92.2764 124.065L91.2495 126.454L93.9597 127.131C94.4645 127.257 94.9593 127.39 95.4463 127.514L94.5837 130.975L96.6665 131.495L97.5212 128.068C98.0901 128.222 98.6423 128.365 99.1828 128.499L98.3314 131.911L100.416 132.43L101.279 128.975C104.834 129.647 107.508 129.376 108.634 126.161C109.54 123.572 108.589 122.078 106.718 121.105C108.077 120.791 109.105 119.895 109.378 118.044ZM104.615 124.723C103.971 127.312 99.6112 125.913 98.1982 125.559L99.3432 120.97C100.756 121.325 105.291 122.023 104.615 124.723ZM105.259 118.006C104.672 120.361 101.043 119.165 99.8664 118.872L100.904 114.707C102.082 115.003 105.872 115.551 105.259 118.006Z" fill="white"/>
</g>
<g id="Group 101">
<path id="Vector_6" d="M143 171.751C143 181.692 135.389 189.751 126 189.751C116.611 189.751 109 181.692 109 171.751C109 161.81 116.611 153.751 126 153.751C135.389 153.751 143 161.81 143 171.751Z" fill="#B0B0B0"/>
<path id="Vector_7" d="M125.006 176.559L126.11 172.157L128.724 171.146L129.375 168.559L129.353 168.494L126.779 169.49L128.633 162.098H123.375L120.95 171.744L118.926 172.528L118.257 175.195L120.28 174.412L118.851 180.098H132.845L133.742 176.559H125.006Z" fill="white"/>
</g>
<g id="Group 102">
<g id="Group_2" opacity="0.6">
<path id="Vector_8" opacity="0.6" d="M19.5205 181.051L0 191.359L19.5205 204.751L39.0333 191.359L19.5205 181.051Z" fill="#010101"/>
</g>
<g id="Group_3" opacity="0.45">
<path id="Vector_9" opacity="0.45" d="M0 191.359L19.5205 204.751V153.751L0 191.359Z" fill="#010101"/>
</g>
<g id="Group_4" opacity="0.8">
<path id="Vector_10" opacity="0.8" d="M19.5205 153.751V204.751L39.0333 191.359L19.5205 153.751Z" fill="#010101"/>
</g>
</g>
<path id="Vector_11" d="M141.153 55.8271C138.88 57.3711 137.534 60.1593 137.534 63.0995C137.534 64.6435 138.071 66.1995 138.742 67.5877C139.278 68.8277 139.541 70.9919 137.67 72.0759C136.334 72.9999 134.587 72.3839 133.788 70.8359C132.988 69.5959 132.051 68.3559 130.843 67.4317C128.57 65.8877 125.889 65.8877 123.616 67.4317C121.342 68.9757 120 71.7709 120 74.712C120 77.653 121.336 80.4402 123.615 81.9884C125.888 83.5324 128.57 83.5324 130.843 81.9884C132.05 81.2124 132.988 79.9804 133.652 78.5842C134.188 77.5002 135.662 76.1042 137.534 77.3442C138.87 78.2682 139.271 80.2884 138.607 81.8324C137.935 83.2284 137.534 84.7766 137.534 86.3206C137.534 89.2648 138.87 92.0488 141.153 93.593C143.426 95.137 146.108 95.137 148.381 93.593C150.654 92.049 152 89.2608 152 86.3206C152 83.3804 150.661 80.5924 148.381 79.0442C147.174 78.2682 145.835 77.9602 144.364 77.9602C143.157 77.9602 141.555 77.0362 141.555 74.712C141.555 72.8519 142.762 71.4637 144.364 71.4637C145.7 71.4637 147.174 71.1557 148.381 70.3797C150.654 68.8357 152 66.0475 152 63.1075C152 60.1675 150.661 57.3793 148.381 55.8351C147.309 55.0591 145.973 54.7511 144.766 54.7511C143.565 54.7431 142.219 55.0591 141.154 55.8271" fill="url(#paint0_linear)"/>
<g id="Group 103">
<path id="Vector_12" d="M49 25.7509C57.8362 25.7509 65 33.8102 65 43.7509C65 53.6916 57.8358 61.7509 49 61.7509C40.1642 61.7509 33 53.6938 33 43.7509C33 33.8081 40.1629 25.7509 49 25.7509Z" fill="#A7EAD7"/>
<path id="Vector_13" d="M50.9747 41.3526V38.6749H56.4175V34.595H41.5964V38.6749H47.04V41.3504C42.616 41.579 39.2896 42.5647 39.2896 43.7455C39.2896 44.9263 42.6176 45.912 47.04 46.142V54.719H50.976V46.1413C55.392 45.912 58.7116 44.927 58.7116 43.7473C58.7116 42.5676 55.392 41.5826 50.976 41.3533L50.9747 41.3526ZM50.976 45.4148V45.4127C50.8649 45.4206 50.2944 45.4591 49.024 45.4591C48.0083 45.4591 47.2937 45.4267 47.0419 45.412V45.4156C43.1334 45.2208 40.216 44.4551 40.216 43.5389C40.216 42.6227 43.1337 41.858 47.0419 41.6629V44.6527C47.2979 44.6725 48.03 44.7211 49.0406 44.7211C50.2543 44.7211 50.8646 44.6642 50.9766 44.6527V41.6629C54.8774 41.8584 57.7881 42.6248 57.7881 43.5378C57.7881 44.4508 54.8761 45.2176 50.9766 45.413" fill="white"/>
</g>
</g>
<g id="Group 105">
<g id="Group 100_2">
<path id="Vector_14" d="M302.581 141.149L302.505 140.341L301.208 140.558L301.25 140.766L301.991 141.224L302.581 141.149Z" fill="black"/>
<g id="Group_5" opacity="0.05">
<path id="Vector_15" opacity="0.05" d="M306.576 144.603C306.441 144.385 306.285 144.169 306.154 144.064L306.177 144.197C306.293 144.235 306.437 144.402 306.576 144.603Z" fill="black"/>
<path id="Vector_16" opacity="0.05" d="M303.666 143.965L305.113 144.715C304.838 142.688 304.983 139.974 304.983 139.974L304.858 139.782C304.858 139.782 304.712 142.499 304.989 144.523L303.625 143.818L303.666 143.965Z" fill="black"/>
</g>
<path id="Vector_17" d="M274.751 158.416C266.559 151.865 265.23 139.91 271.783 131.716C278.337 123.522 290.289 122.195 298.481 128.748C306.672 135.302 308.004 147.254 301.452 155.445C294.901 163.637 282.945 164.969 274.751 158.416Z" fill="#F7931A"/>
<path id="Vector_18" d="M285.582 152.326C287.722 153.724 289.76 152.541 291.68 150.526L294.436 152.731L295.778 151.053L293.097 148.907C293.45 148.466 293.802 148.008 294.152 147.552L296.854 149.712L298.193 148.037L295.438 145.832C295.721 145.463 296 145.101 296.278 144.753L296.288 144.757L298.14 142.446L296.347 141.01C296.347 141.01 295.38 142.268 295.374 142.229C294.83 142.909 294.258 142.815 293.866 142.607L290.728 140.096C290.68 140.155 290.629 140.212 290.574 140.264C290.619 140.208 290.667 140.149 290.718 140.085L286.319 136.566C286.129 136.365 285.888 135.967 286.268 135.491C286.232 135.497 287.243 134.271 287.243 134.271L285.501 132.342L283.755 134.522C283.429 134.928 283.103 135.323 282.787 135.714L280.001 133.486L278.66 135.162L281.418 137.368C281.04 137.821 280.68 138.264 280.333 138.699L277.588 136.502L276.245 138.18L279.027 140.406C276.932 143.356 276.064 145.899 278.516 148.264C280.491 150.168 282.245 149.925 283.911 148.632C283.629 149.997 284.014 151.305 285.582 152.326ZM281.499 145.211C279.415 143.545 282.505 140.167 283.416 139.03L287.109 141.985C286.197 143.121 283.671 146.951 281.499 145.211ZM287.335 148.598C285.44 147.082 288.041 144.283 288.798 143.336L292.15 146.016C291.39 146.963 289.311 150.179 287.335 148.598Z" fill="white"/>
</g>
<g id="Group 101_2">
<path id="Vector_19" d="M222.747 160.482C213.712 156.336 209.562 146.057 213.478 137.524C217.394 128.991 227.893 125.435 236.928 129.581C245.963 133.728 250.113 144.006 246.197 152.54C242.281 161.073 231.782 164.629 222.747 160.482Z" fill="#B0B0B0"/>
<path id="Vector_20" d="M225.882 142.123L229.423 144.962L229.251 147.76L231.332 149.43L231.399 149.437L231.568 146.683L237.513 151.451L239.706 146.672L231.95 140.445L232.082 138.278L229.937 136.558L229.805 138.723L225.234 135.052L219.396 147.771L222.238 150.063L225.882 142.123Z" fill="white"/>
</g>
<g id="Group 102_2">
<g id="Group_6" opacity="0.6">
<path id="Vector_21" opacity="0.6" d="M265.798 44.3778L264.571 22.3366L244.258 34.4924L248.29 57.8124L265.798 44.3778Z" fill="#010101"/>
</g>
<g id="Group_7" opacity="0.45">
<path id="Vector_22" opacity="0.45" d="M264.571 22.3366L244.258 34.4924L290.609 55.7645L264.571 22.3366Z" fill="#010101"/>
</g>
<g id="Group_8" opacity="0.8">
<path id="Vector_23" opacity="0.8" d="M290.609 55.7644L244.257 34.4923L248.29 57.8123L290.609 55.7644Z" fill="#010101"/>
</g>
</g>
<path id="Vector_24" d="M328.875 207.156C328.42 204.446 326.447 202.06 323.775 200.833C322.372 200.189 320.734 200.028 319.192 200.059C317.842 200.029 315.765 199.365 315.56 197.212C315.278 195.613 316.566 194.282 318.306 194.201C319.767 193.992 321.285 193.657 322.628 192.945C324.98 191.523 326.098 189.086 325.643 186.376C325.188 183.666 323.207 181.28 320.535 180.053C317.862 178.827 314.771 178.878 312.413 180.304C310.062 181.726 308.944 184.163 309.399 186.873C309.6 188.294 310.329 189.66 311.321 190.846C312.082 191.786 312.736 193.708 310.829 194.892C309.432 195.72 307.428 195.242 306.302 193.994C305.313 192.802 304.074 191.792 302.67 191.148C299.995 189.919 296.907 189.972 294.551 191.403C292.2 192.825 291.082 195.262 291.537 197.972C291.992 200.682 293.964 203.069 296.637 204.295C299.309 205.521 302.401 205.467 304.759 204.041C305.968 203.267 306.807 202.179 307.42 200.842C307.924 199.745 309.432 198.674 311.544 199.644C313.235 200.419 313.993 202.096 313.324 203.552C312.767 204.766 312.433 206.234 312.634 207.655C313.089 210.365 315.062 212.751 317.734 213.977C320.406 215.203 323.499 215.149 325.853 213.721C327.006 213.07 327.843 211.985 328.346 210.888C328.854 209.8 329.128 208.445 328.875 207.156" fill="url(#paint1_linear)"/>
<g id="Group 103_2">
<path id="Vector_25" d="M394.648 135.946C390.962 143.977 380.649 147.126 371.615 142.98C362.58 138.834 358.243 128.961 361.929 120.93C365.614 112.9 375.925 109.749 384.962 113.896C393.998 118.044 398.334 127.914 394.648 135.946Z" fill="#53AE94"/>
<path id="Vector_26" d="M379.644 131.233L382.078 132.35L379.808 137.297L383.516 138.999L389.697 125.529L385.989 123.827L383.719 128.774L381.287 127.658C382.925 123.542 383.416 120.108 382.343 119.615C381.27 119.123 378.986 121.736 376.932 125.66L369.137 122.082L367.495 125.659L375.291 129.237C373.658 133.346 373.168 136.774 374.241 137.266C375.313 137.758 377.593 135.152 379.643 131.234L379.644 131.233ZM375.952 129.54L375.954 129.541C375.993 129.437 376.196 128.902 376.726 127.748C377.149 126.825 377.477 126.189 377.595 125.966L377.592 125.964C379.399 122.493 381.312 120.161 382.145 120.543C382.977 120.926 382.455 123.896 381.002 127.53L378.285 126.283C378.16 126.507 377.811 127.152 377.389 128.071C376.883 129.174 376.68 129.752 376.644 129.859L379.361 131.106C377.557 134.57 375.646 136.895 374.816 136.514C373.986 136.134 374.504 133.167 375.953 129.542" fill="white"/>
</g>
</g>
<g id="Group 106">
<g id="Group 100_3">
<path id="Vector_27" d="M550.665 108.004L551.263 108.553L552.081 107.523L551.91 107.396L551.053 107.552L550.665 108.004Z" fill="black"/>
<g id="Group_9" opacity="0.05">
<path id="Vector_28" opacity="0.05" d="M545.385 108.112C545.631 108.183 545.892 108.24 546.059 108.23L545.952 108.147C545.841 108.196 545.622 108.168 545.385 108.112Z" fill="black"/>
<path id="Vector_29" opacity="0.05" d="M547.974 106.637L546.397 107.05C547.959 108.371 549.668 110.484 549.668 110.484L549.889 110.543C549.889 110.543 548.179 108.427 546.618 107.109L548.103 106.72L547.974 106.637Z" fill="black"/>
</g>
<path id="Vector_30" d="M559.779 76.5447C570.25 75.9276 579.241 83.9175 579.858 94.3919C580.476 104.866 572.486 113.854 562.013 114.47C551.541 115.085 542.55 107.098 541.933 96.6273C541.316 86.1563 549.305 77.1625 559.779 76.5447Z" fill="#F7931A"/>
<path id="Vector_31" d="M555.81 88.3203C553.285 88.7142 552.563 90.9572 552.486 93.7393L548.962 93.9468L549.089 96.0918L552.517 95.8909C552.55 96.4549 552.596 97.0304 552.641 97.6036L549.188 97.8083L549.314 99.9488L552.836 99.7422C552.873 100.206 552.909 100.662 552.935 101.106L552.925 101.109L553.096 104.067L555.389 103.933C555.389 103.933 555.266 102.351 555.296 102.375C555.245 101.507 555.733 101.194 556.163 101.086L560.176 100.849C560.171 100.774 560.172 100.698 560.177 100.622C560.182 100.693 560.186 100.77 560.191 100.851L565.814 100.52C566.089 100.542 566.535 100.677 566.572 101.284C566.595 101.256 566.664 102.844 566.664 102.844L569.25 103.11L569.087 100.322C569.057 99.8022 569.036 99.2904 569.009 98.7886L572.569 98.5783L572.443 96.4353L568.918 96.6429C568.895 96.0539 568.866 95.4843 568.833 94.9284L572.343 94.7223L572.216 92.5772L568.661 92.786C568.241 89.192 567.183 86.7216 563.779 86.607C561.037 86.515 559.896 87.8691 559.525 89.9451C558.82 88.7423 557.658 88.0287 555.81 88.3203ZM563.607 90.8719C566.27 90.7135 566.236 95.2919 566.321 96.7461L561.599 97.0237C561.516 95.569 560.829 91.0331 563.607 90.8719ZM557.004 92.2624C559.427 92.1202 559.369 95.9404 559.44 97.151L555.156 97.4039C555.087 96.1919 554.478 92.4113 557.004 92.2624Z" fill="white"/>
</g>
<g id="Group 101_3">
<path id="Vector_32" d="M597.026 40.1948C606.514 37.2261 616.478 42.0833 619.281 51.0438C622.085 60.0043 616.667 69.6748 607.179 72.6434C597.692 75.612 587.728 70.7547 584.924 61.7941C582.12 52.8338 587.538 43.1634 597.026 40.1948Z" fill="#B0B0B0"/>
<path id="Vector_33" d="M606.989 55.9319L602.457 56.1928L600.712 53.9998L598.048 54.1518L597.994 54.1922L599.712 56.3508L592.104 56.7888L593.674 61.8071L603.605 61.2405L604.956 62.9388L607.702 62.7807L606.351 61.0837L612.204 60.7498L608.025 47.3939L604.38 47.5943L606.989 55.9319Z" fill="white"/>
</g>
<g id="Group 102_3">
<g id="Group_10" opacity="0.6">
<path id="Vector_34" opacity="0.6" d="M642.775 155.263L658.443 170.814L665.394 148.186L646.787 133.562L642.775 155.263Z" fill="#010101"/>
</g>
<g id="Group_11" opacity="0.45">
<path id="Vector_35" opacity="0.45" d="M658.443 170.814L665.394 148.186L616.721 163.415L658.443 170.814Z" fill="#010101"/>
</g>
<g id="Group_12" opacity="0.8">
<path id="Vector_36" opacity="0.8" d="M616.721 163.415L665.394 148.186L646.787 133.562L616.721 163.415Z" fill="#010101"/>
</g>
</g>
<path id="Vector_37" d="M486.943 76.5744C489.095 78.2827 492.158 78.7346 494.964 77.8566C496.438 77.3955 497.763 76.4191 498.887 75.3639C499.911 74.4818 501.897 73.5846 503.491 75.0471C504.772 76.0457 504.705 77.8972 503.467 79.1221C502.522 80.2552 501.618 81.5203 501.097 82.9487C500.302 85.5791 501.103 88.1381 503.255 89.8466C505.408 91.555 508.476 92.0015 511.283 91.1232C514.09 90.245 516.351 88.1381 517.148 85.5001C517.943 82.8697 517.142 80.3107 514.99 78.6022C513.888 77.6816 512.433 77.1549 510.902 76.9376C509.707 76.7495 507.935 75.7598 508.559 73.6031C509.042 72.0526 510.85 71.0664 512.522 71.2394C514.055 71.463 515.652 71.3837 517.126 70.9226C519.936 70.0434 522.194 67.9374 522.986 65.2971C523.781 62.6667 522.98 60.1076 520.828 58.3992C518.675 56.6908 515.612 56.2387 512.806 57.1167C510 57.9947 507.739 60.1052 506.942 62.7434C506.562 64.1276 506.668 65.4975 507.107 66.9008C507.468 68.0532 507.065 69.858 504.846 70.552C503.071 71.1075 501.386 70.3696 500.907 68.8408C500.509 67.5662 499.775 66.2515 498.673 65.3308C496.521 63.6226 493.458 63.1707 490.652 64.0486C487.846 64.9266 485.585 67.0371 484.792 69.6742C484.372 70.9294 484.477 72.2961 484.837 73.448C485.188 74.5963 485.892 75.7864 486.943 76.5739" fill="url(#paint2_linear)"/>
<g id="Group 103_3">
<path id="Vector_38" d="M485.758 173.504C483.12 165.071 488.672 155.828 498.159 152.859C507.646 149.891 517.477 154.321 520.116 162.754C522.754 171.187 517.204 180.43 507.715 183.399C498.226 186.368 488.397 181.938 485.758 173.504Z" fill="#53AE94"/>
<path id="Vector_39" d="M500.058 166.961L497.503 167.76L495.878 162.566L491.984 163.784L496.41 177.929L500.303 176.711L498.678 171.515L501.231 170.716C502.771 174.87 504.705 177.751 505.832 177.398C506.959 177.045 506.905 173.575 505.804 169.286L513.99 166.724L512.815 162.968L504.628 165.529C503.091 161.383 501.159 158.509 500.033 158.862C498.908 159.214 498.959 162.676 500.059 166.959L500.058 166.961ZM503.935 165.746L503.933 165.747C503.974 165.851 504.181 166.384 504.56 167.596C504.863 168.565 505.046 169.257 505.107 169.502L505.11 169.501C506.092 173.289 506.232 176.302 505.358 176.576C504.483 176.849 502.882 174.293 501.529 170.621L504.382 169.728C504.325 169.478 504.153 168.765 503.851 167.801C503.488 166.642 503.252 166.077 503.207 165.973L500.354 166.866C499.376 163.085 499.238 160.078 500.109 159.805C500.981 159.533 502.582 162.083 503.933 165.746" fill="white"/>
</g>
</g>
<g id="Group 107">
<g id="Group 100_4">
<path id="Vector_40" d="M828.579 101.123L828.244 101.863L829.478 102.318L829.545 102.116L829.129 101.351L828.579 101.123Z" fill="black"/>
<g id="Group_13" opacity="0.05">
<path id="Vector_41" opacity="0.05" d="M826.827 96.1413C826.837 96.3976 826.864 96.6629 826.926 96.8189L826.972 96.6916C826.89 96.6013 826.848 96.3847 826.827 96.1413Z" fill="black"/>
<path id="Vector_42" opacity="0.05" d="M829.037 98.1406L828.152 96.771C827.385 98.6672 825.911 100.951 825.911 100.951L825.924 101.179C825.924 101.179 827.4 98.8938 828.166 96.9992L828.999 98.2888L829.037 98.1406Z" fill="black"/>
</g>
<path id="Vector_43" d="M861.311 99.9547C865.168 109.709 860.386 120.746 850.628 124.604C840.871 128.463 829.837 123.68 825.981 113.923C822.125 104.167 826.904 93.1317 836.659 89.2746C846.413 85.4175 857.452 90.198 861.311 99.9547Z" fill="#F7931A"/>
<path id="Vector_44" d="M848.885 99.8629C847.722 97.5865 845.365 97.6013 842.698 98.3972L841.401 95.1148L839.403 95.905L840.664 99.0988C840.139 99.3067 839.606 99.5294 839.076 99.7513L837.803 96.5349L835.809 97.3235L837.105 100.605C836.676 100.785 836.254 100.961 835.84 101.125L835.834 101.116L833.078 102.203L833.922 104.339C833.922 104.339 835.386 103.728 835.373 103.765C836.182 103.445 836.631 103.81 836.868 104.185L838.346 107.923C838.417 107.895 838.489 107.872 838.563 107.854C838.496 107.88 838.425 107.908 838.349 107.938L840.42 113.177C840.485 113.445 840.496 113.91 839.931 114.135C839.965 114.148 838.478 114.709 838.478 114.709L839.032 117.25L841.631 116.224C842.115 116.033 842.594 115.853 843.063 115.671L844.375 118.987L846.371 118.198L845.073 114.914C845.625 114.708 846.157 114.503 846.675 114.298L847.967 117.568L849.965 116.778L848.656 113.465C851.939 111.943 853.956 110.167 853.001 106.897C852.232 104.264 850.59 103.603 848.502 103.9C849.424 102.854 849.739 101.527 848.885 99.8629ZM848.896 108.066C849.878 110.547 845.518 111.945 844.163 112.479L842.425 108.08C843.781 107.547 847.875 105.477 848.896 108.066ZM845.513 102.228C846.405 104.486 842.757 105.623 841.63 106.07L840.051 102.078C841.181 101.634 844.582 99.8746 845.513 102.228Z" fill="white"/>
</g>
<g id="Group 101_4">
<path id="Vector_45" d="M907.476 123.985C913.26 132.07 911.758 143.053 904.122 148.515C896.485 153.977 885.606 151.851 879.823 143.765C874.039 135.679 875.541 124.697 883.178 119.235C890.814 113.772 901.693 115.899 907.476 123.985Z" fill="#B0B0B0"/>
<path id="Vector_46" d="M895.638 138.364L893.975 134.141L895.513 131.798L894.537 129.315L894.481 129.276L892.968 131.583L890.175 124.492L885.898 127.551L889.538 136.808L888.347 138.622L889.355 141.181L890.545 139.368L892.69 144.823L904.073 136.681L902.744 133.282L895.638 138.364Z" fill="white"/>
</g>
<g id="Group 102_4">
<g id="Group_14" opacity="0.6">
<path id="Vector_47" opacity="0.6" d="M812.455 203.386L802.576 223.128L826.243 222.663L834.323 200.419L812.455 203.386Z" fill="#010101"/>
</g>
<g id="Group_15" opacity="0.45">
<path id="Vector_48" opacity="0.45" d="M802.576 223.128L826.243 222.663L796.573 181.182L802.576 223.128Z" fill="#010101"/>
</g>
<g id="Group_16" opacity="0.8">
<path id="Vector_49" opacity="0.8" d="M796.573 181.182L826.244 222.663L834.323 200.419L796.573 181.182Z" fill="#010101"/>
</g>
</g>
<path id="Vector_50" d="M838.532 30.7727C837.582 33.3509 838.109 36.4017 839.82 38.7931C840.718 40.0489 842.059 41.0025 843.413 41.741C844.571 42.4376 846.044 44.0449 845.152 46.0154C844.603 47.5439 842.824 48.0594 841.273 47.2652C839.902 46.7217 838.418 46.2586 836.898 46.2094C834.151 46.276 831.97 47.836 831.019 50.4143C830.069 52.9926 830.603 56.0471 832.314 58.4392C834.025 60.8312 836.733 62.3212 839.488 62.2542C842.235 62.1876 844.416 60.6276 845.366 58.0493C845.897 56.7156 845.943 55.1682 845.671 53.646C845.476 52.4524 845.863 50.4595 848.107 50.3791C849.731 50.3536 851.232 51.7633 851.59 53.4056C851.856 54.9315 852.431 56.4242 853.329 57.68C855.042 60.0747 857.748 61.5621 860.503 61.4896C863.25 61.423 865.431 59.863 866.382 57.2847C867.333 54.7064 866.805 51.6555 865.095 49.2641C863.384 46.8727 860.673 45.384 857.918 45.4512C856.484 45.5226 855.216 46.0511 854.02 46.9065C853.038 47.6091 851.198 47.7895 849.845 45.8991C848.763 44.3863 848.938 42.5547 850.241 41.6227C851.327 40.8457 852.347 39.7377 852.877 38.4041C853.828 35.8259 853.3 32.7751 851.59 30.3838C849.88 27.9926 847.168 26.5038 844.416 26.5743C843.092 26.567 841.826 27.0936 840.845 27.7958C839.863 28.4878 838.953 29.5278 838.533 30.7724" fill="url(#paint3_linear)"/>
<g id="Group 103_4">
<path id="Vector_51" d="M746.082 59.9232C753.269 54.7825 763.784 57.1698 769.567 65.255C775.351 73.3402 774.213 84.0632 767.026 89.2037C759.839 94.3442 749.325 91.9589 743.54 83.8719C737.756 75.785 738.894 65.0645 746.082 59.9232Z" fill="#53AE94"/>
<path id="Vector_52" d="M756.765 71.4638L755.207 69.2859L759.634 66.1194L757.261 62.801L745.206 71.4237L747.579 74.742L752.007 71.5751L753.564 73.7512C750.098 76.5109 747.966 79.2479 748.653 80.2083C749.34 81.1687 752.62 80.0342 756.351 77.6484L761.341 84.6245L764.542 82.3346L759.552 75.358C763.01 72.6023 765.137 69.8699 764.451 68.9104C763.765 67.9508 760.492 69.081 756.767 71.4637L756.765 71.4638ZM759.129 74.7671L759.128 74.7653C759.042 74.8364 758.601 75.1996 757.568 75.9387C756.741 76.5296 756.141 76.919 755.928 77.0535L755.93 77.0564C752.638 79.1719 749.819 80.2464 749.286 79.5012C748.753 78.756 750.682 76.4366 753.747 74.0042L755.486 76.436C755.706 76.3032 756.33 75.9167 757.152 75.3288C758.139 74.6227 758.602 74.2214 758.687 74.1469L756.947 71.7151C760.234 69.6047 763.047 68.5347 763.578 69.2772C764.109 70.0198 762.187 72.3376 759.129 74.7653" fill="white"/>
</g>
</g>
<g id="Group 108">
<g id="Group 100_5">
<path id="Vector_53" d="M1103.88 119.743L1103.07 119.828L1103.3 121.123L1103.51 121.078L1103.96 120.333L1103.88 119.743Z" fill="black"/>
<g id="Group_17" opacity="0.05">
<path id="Vector_54" opacity="0.05" d="M1107.29 115.714C1107.08 115.852 1106.86 116.009 1106.76 116.141L1106.89 116.117C1106.93 116 1107.1 115.855 1107.29 115.714Z" fill="black"/>
<path id="Vector_55" opacity="0.05" d="M1106.69 118.631L1107.42 117.175C1105.4 117.472 1102.68 117.354 1102.68 117.354L1102.49 117.481C1102.49 117.481 1105.21 117.6 1107.23 117.302L1106.54 118.673L1106.69 118.631Z" fill="black"/>
</g>
<path id="Vector_56" d="M1121.43 147.397C1114.96 155.655 1103.02 157.106 1094.76 150.636C1086.5 144.166 1085.05 132.228 1091.52 123.97C1097.99 115.712 1109.93 114.26 1118.19 120.727C1126.45 127.195 1127.9 139.137 1121.43 147.397Z" fill="#F7931A"/>
<path id="Vector_57" d="M1115.23 136.628C1116.61 134.474 1115.4 132.448 1113.37 130.549L1115.55 127.771L1113.85 126.446L1111.74 129.148C1111.29 128.8 1110.83 128.453 1110.37 128.108L1112.5 125.384L1110.81 124.062L1108.64 126.839C1108.26 126.56 1107.9 126.284 1107.55 126.01L1107.55 126L1105.22 124.171L1103.81 125.979C1103.81 125.979 1105.07 126.933 1105.04 126.94C1105.72 127.477 1105.63 128.049 1105.43 128.444L1102.95 131.608C1103.01 131.654 1103.07 131.705 1103.12 131.76C1103.06 131.715 1103 131.668 1102.94 131.618L1099.46 136.052C1099.27 136.244 1098.87 136.489 1098.39 136.114C1098.4 136.15 1097.16 135.151 1097.16 135.151L1095.25 136.913L1097.45 138.637C1097.86 138.958 1098.25 139.281 1098.65 139.593L1096.45 142.401L1098.14 143.725L1100.32 140.945C1100.77 141.318 1101.22 141.673 1101.66 142.016L1099.49 144.784L1101.18 146.109L1103.38 143.305C1106.35 145.369 1108.9 146.212 1111.24 143.735C1113.12 141.741 1112.86 139.99 1111.55 138.338C1112.92 138.605 1114.23 138.207 1115.23 136.628ZM1108.16 140.784C1106.51 142.885 1103.1 139.829 1101.96 138.93L1104.87 135.207C1106.02 136.108 1109.88 138.594 1108.16 140.784ZM1111.49 134.914C1109.99 136.824 1107.16 134.252 1106.21 133.504L1108.85 130.125C1109.81 130.876 1113.05 132.921 1111.49 134.914Z" fill="white"/>
</g>
<g id="Group 101_5">
<path id="Vector_58" d="M1124.03 199.378C1119.97 208.454 1109.74 212.709 1101.16 208.879C1092.59 205.05 1088.93 194.588 1092.98 185.511C1097.04 176.434 1107.27 172.18 1115.84 176.009C1124.42 179.839 1128.08 190.301 1124.03 199.378Z" fill="#B0B0B0"/>
<path id="Vector_59" d="M1105.63 196.429L1108.44 192.86L1111.24 193.003L1112.89 190.906L1112.89 190.838L1110.14 190.698L1114.84 184.704L1110.04 182.56L1103.9 190.379L1101.73 190.268L1100.03 192.431L1102.2 192.542L1098.57 197.15L1111.35 202.857L1113.61 199.992L1105.63 196.429Z" fill="white"/>
</g>
<g id="Group 102_5">
<g id="Group_18" opacity="0.6">
<path id="Vector_60" opacity="0.6" d="M1007.49 157.509L985.462 158.961L997.823 179.149L1021.1 174.88L1007.49 157.509Z" fill="#010101"/>
</g>
<g id="Group_19" opacity="0.45">
<path id="Vector_61" opacity="0.45" d="M985.462 158.961L997.823 179.149L1018.62 132.583L985.462 158.961Z" fill="#010101"/>
</g>
<g id="Group_20" opacity="0.8">
<path id="Vector_62" opacity="0.8" d="M1018.62 132.583L997.823 179.149L1021.1 174.88L1018.62 132.583Z" fill="#010101"/>
</g>
</g>
<path id="Vector_63" d="M1169.62 92.7796C1166.91 93.2624 1164.55 95.2592 1163.35 97.9438C1162.72 99.3536 1162.57 100.993 1162.62 102.534C1162.6 103.885 1161.96 105.968 1159.81 106.195C1158.21 106.494 1156.87 105.219 1156.77 103.48C1156.55 102.021 1156.2 100.507 1155.47 99.1705C1154.03 96.8337 1151.58 95.7401 1148.87 96.2228C1146.17 96.7054 1143.8 98.7101 1142.6 101.395C1141.4 104.081 1141.48 107.17 1142.93 109.514C1144.38 111.85 1146.83 112.944 1149.53 112.461C1150.95 112.245 1152.31 111.503 1153.49 110.499C1154.42 109.728 1156.33 109.054 1157.54 110.95C1158.38 112.338 1157.92 114.346 1156.69 115.485C1155.5 116.486 1154.51 117.736 1153.88 119.146C1152.68 121.834 1152.76 124.921 1154.21 127.262C1155.66 129.599 1158.11 130.692 1160.81 130.21C1163.52 129.727 1165.89 127.73 1167.08 125.045C1168.28 122.361 1168.2 119.269 1166.75 116.926C1165.96 115.725 1164.86 114.897 1163.52 114.298C1162.42 113.805 1161.33 112.308 1162.28 110.186C1163.04 108.488 1164.71 107.713 1166.17 108.366C1167.39 108.911 1168.86 109.231 1170.28 109.015C1172.99 108.532 1175.35 106.535 1176.55 103.851C1177.75 101.166 1177.67 98.0745 1176.21 95.7347C1175.55 94.5887 1174.46 93.7628 1173.35 93.2705C1172.26 92.7736 1170.9 92.5132 1169.62 92.7799" fill="url(#paint4_linear)"/>
<g id="Group 103_5">
<path id="Vector_64" d="M1097.74 27.7349C1105.81 31.3386 1109.06 41.6189 1105.01 50.6953C1100.96 59.7717 1091.13 64.2085 1083.06 60.6049C1074.99 57.0013 1071.74 46.7229 1075.79 37.6445C1079.85 28.5662 1089.67 24.1308 1097.74 27.7349Z" fill="#53AE94"/>
<path id="Vector_65" d="M1093.18 42.7855L1094.28 40.3406L1099.24 42.5604L1100.91 38.8353L1087.38 32.7907L1085.71 36.5158L1090.68 38.7359L1089.59 41.1788C1085.46 39.5833 1082.02 39.1266 1081.54 40.2047C1081.06 41.2829 1083.69 43.5401 1087.64 45.5538L1084.14 53.3851L1087.73 54.9903L1091.23 47.1584C1095.36 48.75 1098.79 49.2046 1099.27 48.1274C1099.75 47.0503 1097.12 44.7971 1093.18 42.7867L1093.18 42.7855ZM1091.53 46.4951L1091.53 46.4931C1091.42 46.455 1090.89 46.2575 1089.73 45.7394C1088.8 45.3252 1088.16 45.0042 1087.94 44.888L1087.94 44.8913C1084.45 43.1194 1082.09 41.2304 1082.47 40.3939C1082.84 39.5573 1085.82 40.0492 1089.47 41.4649L1088.25 44.1948C1088.47 44.3172 1089.12 44.6602 1090.04 45.0724C1091.15 45.5674 1091.73 45.7643 1091.84 45.7995L1093.06 43.0696C1096.54 44.839 1098.89 46.7259 1098.51 47.5595C1098.14 48.3931 1095.17 47.9056 1091.53 46.4937" fill="white"/>
</g>
</g>
<g id="Group 109">
<g id="Group 100_6">
<path id="Vector_66" d="M1418.78 144.093L1418.11 143.635L1417.45 144.772L1417.64 144.873L1418.46 144.595L1418.78 144.093Z" fill="black"/>
<g id="Group_21" opacity="0.05">
<path id="Vector_67" opacity="0.05" d="M1423.99 143.224C1423.73 143.189 1423.47 143.171 1423.3 143.205L1423.42 143.272C1423.52 143.207 1423.75 143.203 1423.99 143.224Z" fill="black"/>
<path id="Vector_68" opacity="0.05" d="M1421.64 145.057L1423.14 144.421C1421.4 143.339 1419.41 141.494 1419.41 141.494L1419.18 141.468C1419.18 141.468 1421.18 143.315 1422.91 144.395L1421.5 144.994L1421.64 145.057Z" fill="black"/>
</g>
<path id="Vector_69" d="M1414.3 176.537C1404.03 178.658 1393.98 172.048 1391.85 161.772C1389.73 151.497 1396.34 141.451 1406.62 139.331C1416.89 137.211 1426.94 143.818 1429.06 154.091C1431.18 164.363 1424.57 174.415 1414.3 176.537Z" fill="#F7931A"/>
<path id="Vector_70" d="M1416.53 164.312C1418.97 163.558 1419.36 161.234 1419.04 158.47L1422.49 157.757L1422.06 155.653L1418.69 156.346C1418.58 155.792 1418.45 155.229 1418.32 154.669L1421.71 153.968L1421.28 151.868L1417.82 152.581C1417.72 152.127 1417.62 151.681 1417.53 151.245L1417.54 151.241L1416.94 148.339L1414.69 148.802C1414.69 148.802 1415.04 150.35 1415.01 150.33C1415.18 151.182 1414.75 151.562 1414.34 151.731L1410.4 152.544C1410.42 152.618 1410.43 152.693 1410.43 152.769C1410.42 152.699 1410.4 152.624 1410.39 152.544L1404.87 153.682C1404.59 153.7 1404.13 153.631 1404.01 153.036C1403.99 153.067 1403.69 151.506 1403.69 151.506L1401.09 151.615L1401.66 154.351C1401.76 154.861 1401.86 155.364 1401.96 155.857L1398.46 156.578L1398.9 158.681L1402.36 157.967C1402.46 158.546 1402.57 159.106 1402.69 159.651L1399.24 160.361L1399.68 162.466L1403.17 161.746C1404.1 165.242 1405.5 167.534 1408.89 167.157C1411.62 166.852 1412.55 165.348 1412.62 163.24C1413.49 164.329 1414.74 164.867 1416.53 164.312ZM1408.44 162.912C1405.83 163.452 1405.2 158.917 1404.91 157.49L1409.54 156.535C1409.84 157.962 1411.17 162.351 1408.44 162.912ZM1414.78 160.583C1412.4 161.074 1411.91 157.285 1411.66 156.097L1415.86 155.229C1416.11 156.418 1417.26 160.072 1414.78 160.583Z" fill="white"/>
</g>
<g id="Group 101_6">
<path id="Vector_71" d="M1382.68 217.879C1373.72 222.185 1363.16 218.815 1359.1 210.353C1355.03 201.89 1359 191.54 1367.96 187.234C1376.92 182.928 1387.48 186.297 1391.54 194.76C1395.61 203.222 1391.64 213.573 1382.68 217.879Z" fill="#B0B0B0"/>
<path id="Vector_72" d="M1370.55 203.743L1375 202.831L1377.04 204.75L1379.66 204.215L1379.71 204.167L1377.69 202.279L1385.16 200.748L1382.88 196.009L1373.14 198.002L1371.55 196.516L1368.86 197.069L1370.44 198.553L1364.7 199.728L1370.76 212.341L1374.34 211.617L1370.55 203.743Z" fill="white"/>
</g>
<g id="Group 102_6">
<g id="Group_22" opacity="0.6">
<path id="Vector_73" opacity="0.6" d="M1320.82 110.612L1303.07 97.4823L1299.46 120.877L1319.98 132.664L1320.82 110.612Z" fill="#010101"/>
</g>
<g id="Group_23" opacity="0.45">
<path id="Vector_74" opacity="0.45" d="M1303.07 97.4823L1299.46 120.877L1345.42 98.787L1303.07 97.4823Z" fill="#010101"/>
</g>
<g id="Group_24" opacity="0.8">
<path id="Vector_75" opacity="0.8" d="M1345.42 98.7869L1299.46 120.877L1319.98 132.664L1345.42 98.7869Z" fill="#010101"/>
</g>
</g>
<path id="Vector_76" d="M1486.37 166.003C1483.99 164.623 1480.9 164.618 1478.25 165.892C1476.85 166.56 1475.68 167.718 1474.72 168.924C1473.84 169.944 1472 171.119 1470.21 169.901C1468.8 169.098 1468.6 167.256 1469.65 165.865C1470.42 164.608 1471.13 163.226 1471.44 161.737C1471.85 159.02 1470.69 156.603 1468.31 155.223C1465.94 153.842 1462.84 153.843 1460.18 155.117C1457.53 156.391 1455.6 158.802 1455.19 161.527C1454.78 164.245 1455.95 166.662 1458.32 168.042C1459.54 168.794 1461.06 169.105 1462.61 169.099C1463.82 169.113 1465.71 169.837 1465.41 172.061C1465.15 173.665 1463.51 174.902 1461.83 174.972C1460.28 174.971 1458.71 175.28 1457.32 175.949C1454.66 177.224 1452.73 179.634 1452.33 182.361C1451.92 185.078 1453.08 187.495 1455.46 188.875C1457.84 190.256 1460.93 190.261 1463.58 188.988C1466.23 187.714 1468.16 185.3 1468.57 182.574C1468.75 181.15 1468.45 179.809 1467.81 178.484C1467.29 177.396 1467.43 175.552 1469.52 174.545C1471.2 173.739 1472.97 174.226 1473.67 175.67C1474.24 176.874 1475.16 178.069 1476.38 178.821C1478.76 180.201 1481.85 180.207 1484.5 178.933C1487.15 177.66 1489.09 175.245 1489.49 172.521C1489.73 171.219 1489.43 169.881 1488.9 168.793C1488.39 167.708 1487.52 166.632 1486.37 166.004" fill="url(#paint5_linear)"/>
<g id="Group 103_6">
<path id="Vector_77" d="M1473.56 69.916C1477.39 77.8803 1473.23 87.828 1464.27 92.1337C1455.31 96.4394 1444.94 93.4729 1441.11 85.509C1437.29 77.545 1441.45 67.5979 1450.41 63.2912C1459.37 58.9846 1469.73 61.9509 1473.56 69.916Z" fill="#A7EAD7"/>
<path id="Vector_78" d="M1460.35 78.4537L1462.77 77.2939L1465.13 82.1997L1468.8 80.4326L1462.38 67.0739L1458.71 68.841L1461.06 73.7474L1458.65 74.9063C1456.53 71.0178 1454.2 68.4466 1453.14 68.9581C1452.07 69.4695 1452.63 72.8961 1454.33 76.9817L1446.6 80.6967L1448.31 84.2444L1456.04 80.529C1458.16 84.41 1460.48 86.9755 1461.55 86.4645C1462.61 85.9535 1462.06 82.5348 1460.35 78.4552L1460.35 78.4537ZM1456.69 80.2144L1456.7 80.2134C1456.64 80.1168 1456.36 79.6192 1455.81 78.4742C1455.37 77.5587 1455.09 76.9006 1454.99 76.6672L1454.99 76.6688C1453.47 73.0616 1452.9 70.1004 1453.72 69.7035C1454.55 69.3067 1456.5 71.6054 1458.37 75.0434L1455.68 76.3384C1455.77 76.5777 1456.04 77.2587 1456.48 78.1695C1457.01 79.2635 1457.32 79.7889 1457.38 79.8848L1460.08 78.5898C1461.59 82.1904 1462.16 85.1459 1461.34 85.5413C1460.51 85.9368 1458.56 83.6442 1456.7 80.2142" fill="white"/>
</g>
</g>
</g>
<defs>
<linearGradient id="paint0_linear" x1="120" y1="54.7509" x2="152" y2="54.7509" gradientUnits="userSpaceOnUse">
<stop stop-color="#11AAE2"/>
<stop offset="0.59" stop-color="#0880B7"/>
<stop offset="1" stop-color="#016197"/>
</linearGradient>
<linearGradient id="paint1_linear" x1="338.676" y1="188.379" x2="325.329" y2="217.463" gradientUnits="userSpaceOnUse">
<stop stop-color="#11AAE2"/>
<stop offset="0.59" stop-color="#0880B7"/>
<stop offset="1" stop-color="#016197"/>
</linearGradient>
<linearGradient id="paint2_linear" x1="492.233" y1="97.084" x2="482.677" y2="66.5441" gradientUnits="userSpaceOnUse">
<stop stop-color="#11AAE2"/>
<stop offset="0.59" stop-color="#0880B7"/>
<stop offset="1" stop-color="#016197"/>
</linearGradient>
<linearGradient id="paint3_linear" x1="820.701" y1="42.2039" x2="846.728" y2="23.587" gradientUnits="userSpaceOnUse">
<stop stop-color="#11AAE2"/>
<stop offset="0.59" stop-color="#0880B7"/>
<stop offset="1" stop-color="#016197"/>
</linearGradient>
<linearGradient id="paint4_linear" x1="1150.74" y1="83.1699" x2="1179.96" y2="96.2207" gradientUnits="userSpaceOnUse">
<stop stop-color="#11AAE2"/>
<stop offset="0.59" stop-color="#0880B7"/>
<stop offset="1" stop-color="#016197"/>
</linearGradient>
<linearGradient id="paint5_linear" x1="1478.18" y1="146.471" x2="1492.04" y2="175.314" gradientUnits="userSpaceOnUse">
<stop stop-color="#11AAE2"/>
<stop offset="0.59" stop-color="#0880B7"/>
<stop offset="1" stop-color="#016197"/>
</linearGradient>
</defs>
</svg>
